<svg xmlns="http://www.w3.org/2000/svg" xmlns:xlink="http://www.w3.org/1999/xlink" width="500" zoomAndPan="magnify" viewBox="0 0 375 374.999991" height="500" preserveAspectRatio="xMidYMid meet" version="1.0"><defs><filter x="0%" y="0%" width="100%" height="100%" id="id1"><feColorMatrix values="0 0 0 0 1 0 0 0 0 1 0 0 0 0 1 0 0 0 1 0" color-interpolation-filters="sRGB"/></filter><g/><clipPath id="id2"><path d="M 113.71875 112.5 L 248 112.5 L 248 262.5 L 113.71875 262.5 Z M 113.71875 112.5 " clip-rule="nonzero"/></clipPath><clipPath id="id3"><path d="M 154 126 L 261.46875 126 L 261.46875 232 L 154 232 Z M 154 126 " clip-rule="nonzero"/></clipPath><mask id="id4"><g filter="url(#id1)"><rect x="-37.5" width="450" fill="#000000" y="-37.499999" height="449.999989" fill-opacity="0.949"/></g></mask><clipPath id="id5"><rect x="0" width="172" y="0" height="103"/></clipPath></defs><g clip-path="url(#id2)"><path fill="#d3d800" d="M 198.597656 255.1875 C 161.167969 255.1875 130.824219 224.882812 130.824219 187.5 C 130.824219 150.117188 161.167969 119.8125 198.597656 119.8125 C 217.980469 119.8125 235.457031 127.941406 247.8125 140.964844 C 234.054688 123.625 212.785156 112.496094 188.914062 112.496094 C 147.441406 112.496094 113.816406 146.078125 113.816406 187.5 C 113.816406 228.921875 147.441406 262.503906 188.914062 262.503906 C 212.785156 262.503906 234.054688 251.375 247.8125 234.035156 C 235.457031 247.058594 217.980469 255.1875 198.597656 255.1875 " fill-opacity="1" fill-rule="nonzero"/></g><path fill="#545454" d="M 229.980469 227.757812 C 220.195312 236.789062 207.109375 242.316406 192.730469 242.316406 C 177.039062 242.316406 162.882812 235.734375 152.878906 225.1875 C 154.355469 227.046875 155.9375 228.820312 157.617188 230.492188 C 177.773438 250.582031 210.800781 249.855469 229.453125 228.371094 C 229.628906 228.167969 229.804688 227.960938 229.980469 227.757812 " fill-opacity="1" fill-rule="nonzero"/><g clip-path="url(#id3)"><path fill="#545454" d="M 200.574219 126.761719 C 182.03125 126.761719 165.429688 135.050781 154.273438 148.121094 C 165.144531 137.960938 179.753906 131.738281 195.816406 131.738281 C 229.40625 131.738281 256.636719 158.929688 256.636719 192.476562 C 256.636719 207.5 251.171875 221.246094 242.125 231.847656 C 253.980469 220.765625 261.390625 204.996094 261.390625 187.5 C 261.390625 153.953125 234.164062 126.761719 200.574219 126.761719 " fill-opacity="1" fill-rule="nonzero"/></g><g mask="url(#id4)"><g transform="matrix(1, 0, 0, 1, 108, 136)"><g clip-path="url(#id5)"><g fill="#545454" fill-opacity="1"><g transform="translate(0.824441, 80.64982)"><g><path d="M 24.96875 0.734375 C 18.0625 0.734375 12.695312 -1.101562 8.875 -4.78125 C 5.0625 -8.457031 3.15625 -13.6875 3.15625 -20.46875 C 3.15625 -27.476562 4.921875 -32.851562 8.453125 -36.59375 C 11.992188 -40.34375 17.050781 -42.21875 23.625 -42.21875 C 29.875 -42.21875 34.703125 -40.585938 38.109375 -37.328125 C 41.515625 -34.078125 43.21875 -29.382812 43.21875 -23.25 L 43.21875 -16.875 L 17.609375 -16.875 C 17.710938 -14.5625 18.5625 -12.742188 20.15625 -11.421875 C 21.757812 -10.109375 23.941406 -9.453125 26.703125 -9.453125 C 29.210938 -9.453125 31.519531 -9.6875 33.625 -10.15625 C 35.738281 -10.632812 38.03125 -11.445312 40.5 -12.59375 L 40.5 -2.3125 C 38.257812 -1.164062 35.941406 -0.375 33.546875 0.0625 C 31.148438 0.507812 28.289062 0.734375 24.96875 0.734375 Z M 24.140625 -32.484375 C 22.453125 -32.484375 21.039062 -31.953125 19.90625 -30.890625 C 18.769531 -29.828125 18.101562 -28.160156 17.90625 -25.890625 L 30.21875 -25.890625 C 30.164062 -27.890625 29.59375 -29.488281 28.5 -30.6875 C 27.414062 -31.882812 25.960938 -32.484375 24.140625 -32.484375 Z M 24.140625 -32.484375 "/></g></g></g><g fill="#d3d800" fill-opacity="1"><g transform="translate(47.172094, 80.64982)"><g><path d="M 30.28125 -42.21875 C 34.800781 -42.21875 38.382812 -40.328125 41.03125 -36.546875 C 43.675781 -32.765625 45 -27.53125 45 -20.84375 C 45 -14.101562 43.660156 -8.820312 40.984375 -5 C 38.316406 -1.175781 34.601562 0.734375 29.84375 0.734375 C 28.3125 0.734375 26.945312 0.566406 25.75 0.234375 C 24.550781 -0.0859375 23.476562 -0.539062 22.53125 -1.125 C 21.59375 -1.71875 20.503906 -2.695312 19.265625 -4.0625 L 18.390625 -4.0625 L 16.109375 0 L 4.9375 0 L 4.9375 -56.984375 L 19.265625 -56.984375 L 19.265625 -44.09375 C 19.265625 -42.550781 19.09375 -39.898438 18.75 -36.140625 L 19.265625 -36.140625 C 20.648438 -38.296875 22.253906 -39.847656 24.078125 -40.796875 C 25.898438 -41.742188 27.96875 -42.21875 30.28125 -42.21875 Z M 25.046875 -30.984375 C 23.046875 -30.984375 21.582031 -30.285156 20.65625 -28.890625 C 19.726562 -27.503906 19.265625 -25.320312 19.265625 -22.34375 L 19.265625 -20.328125 C 19.265625 -16.929688 19.726562 -14.492188 20.65625 -13.015625 C 21.582031 -11.535156 23.097656 -10.796875 25.203125 -10.796875 C 26.878906 -10.796875 28.171875 -11.65625 29.078125 -13.375 C 29.984375 -15.101562 30.4375 -17.640625 30.4375 -20.984375 C 30.4375 -27.648438 28.640625 -30.984375 25.046875 -30.984375 Z M 25.046875 -30.984375 "/></g></g></g><g fill="#545454" fill-opacity="1"><g transform="translate(95.383028, 80.64982)"><g><path d="M 55.890625 0 L 55.890625 -22.5625 C 55.890625 -25.363281 55.503906 -27.46875 54.734375 -28.875 C 53.960938 -30.28125 52.75 -30.984375 51.09375 -30.984375 C 48.894531 -30.984375 47.28125 -30.039062 46.25 -28.15625 C 45.226562 -26.28125 44.71875 -23.34375 44.71875 -19.34375 L 44.71875 0 L 30.359375 0 L 30.359375 -22.5625 C 30.359375 -25.363281 29.988281 -27.46875 29.25 -28.875 C 28.519531 -30.28125 27.335938 -30.984375 25.703125 -30.984375 C 23.460938 -30.984375 21.828125 -29.976562 20.796875 -27.96875 C 19.773438 -25.96875 19.265625 -22.703125 19.265625 -18.171875 L 19.265625 0 L 4.9375 0 L 4.9375 -41.484375 L 15.75 -41.484375 L 17.546875 -36.359375 L 18.390625 -36.359375 C 19.484375 -38.265625 21.070312 -39.71875 23.15625 -40.71875 C 25.25 -41.71875 27.625 -42.21875 30.28125 -42.21875 C 36.269531 -42.21875 40.472656 -40.398438 42.890625 -36.765625 L 44.015625 -36.765625 C 45.191406 -38.472656 46.820312 -39.804688 48.90625 -40.765625 C 50.988281 -41.734375 53.289062 -42.21875 55.8125 -42.21875 C 60.71875 -42.21875 64.34375 -40.960938 66.6875 -38.453125 C 69.03125 -35.941406 70.203125 -32.117188 70.203125 -26.984375 L 70.203125 0 Z M 55.890625 0 "/></g></g></g></g></g></g></svg>